<svg width="40" height="40" viewBox="0 0 40 40" fill="none" xmlns="http://www.w3.org/2000/svg">
<path d="M5 9.99998H8.33333M8.33333 9.99998H35M8.33333 9.99998V33.3333C8.33333 34.2174 8.68452 35.0652 9.30964 35.6903C9.93477 36.3155 10.7826 36.6666 11.6667 36.6666H28.3333C29.2174 36.6666 30.0652 36.3155 30.6904 35.6903C31.3155 35.0652 31.6667 34.2174 31.6667 33.3333V9.99998M13.3333 9.99998V6.66665C13.3333 5.78259 13.6845 4.93474 14.3096 4.30962C14.9348 3.6845 15.7826 3.33331 16.6667 3.33331H23.3333C24.2174 3.33331 25.0652 3.6845 25.6904 4.30962C26.3155 4.93474 26.6667 5.78259 26.6667 6.66665V9.99998M16.6667 18.3333V28.3333M23.3333 18.3333V28.3333" stroke="#1E1E1E" stroke-width="4" stroke-linecap="round" stroke-linejoin="round"/>
</svg>
